<svg width="17" height="17" viewBox="0 0 17 17" fill="none" xmlns="http://www.w3.org/2000/svg">
<path d="M4.37125 12.7513C4.66296 11.926 5.45009 11.3346 6.37533 11.3346C7.30055 11.3346 8.08772 11.926 8.37941 12.7513H15.5837V14.168H8.37941C8.08772 14.9933 7.30055 15.5846 6.37533 15.5846C5.45009 15.5846 4.66296 14.9933 4.37125 14.168H1.41699V12.7513H4.37125ZM8.62124 7.79297C8.91293 6.96763 9.7001 6.3763 10.6253 6.3763C11.5506 6.3763 12.3377 6.96763 12.6294 7.79297H15.5837V9.20964H12.6294C12.3377 10.035 11.5506 10.6263 10.6253 10.6263C9.7001 10.6263 8.91293 10.035 8.62124 9.20964H1.41699V7.79297H8.62124ZM4.37125 2.83464C4.66296 2.00929 5.45009 1.41797 6.37533 1.41797C7.30055 1.41797 8.08772 2.00929 8.37941 2.83464H15.5837V4.2513H8.37941C8.08772 5.07664 7.30055 5.66797 6.37533 5.66797C5.45009 5.66797 4.66296 5.07664 4.37125 4.2513H1.41699V2.83464H4.37125ZM6.37533 4.2513C6.76652 4.2513 7.08366 3.93417 7.08366 3.54297C7.08366 3.15177 6.76652 2.83464 6.37533 2.83464C5.98413 2.83464 5.66699 3.15177 5.66699 3.54297C5.66699 3.93417 5.98413 4.2513 6.37533 4.2513ZM10.6253 9.20964C11.0165 9.20964 11.3337 8.89251 11.3337 8.5013C11.3337 8.11009 11.0165 7.79297 10.6253 7.79297C10.2341 7.79297 9.91699 8.11009 9.91699 8.5013C9.91699 8.89251 10.2341 9.20964 10.6253 9.20964ZM6.37533 14.168C6.76652 14.168 7.08366 13.8508 7.08366 13.4596C7.08366 13.0684 6.76652 12.7513 6.37533 12.7513C5.98413 12.7513 5.66699 13.0684 5.66699 13.4596C5.66699 13.8508 5.98413 14.168 6.37533 14.168Z" fill="#2A2A2B"/>
</svg>
