<svg width="15" height="16" viewBox="0 0 15 16" fill="none" xmlns="http://www.w3.org/2000/svg">
<path d="M11.7718 11.2696L14.8054 14.3032L13.8036 15.3049L10.7701 12.2713C9.67931 13.144 8.296 13.666 6.7915 13.666C3.2725 13.666 0.416504 10.81 0.416504 7.29102C0.416504 3.77202 3.2725 0.916016 6.7915 0.916016C10.3105 0.916016 13.1665 3.77202 13.1665 7.29102C13.1665 8.79552 12.6445 10.1788 11.7718 11.2696ZM10.3507 10.744C11.2168 9.85136 11.7498 8.63373 11.7498 7.29102C11.7498 4.55154 9.53098 2.33268 6.7915 2.33268C4.05202 2.33268 1.83317 4.55154 1.83317 7.29102C1.83317 10.0305 4.05202 12.2493 6.7915 12.2493C8.13422 12.2493 9.35184 11.7163 10.2445 10.8502L10.3507 10.744Z" fill="#2A2A2B"/>
</svg>
