<svg width="13" height="16" viewBox="0 0 13 16" fill="none" xmlns="http://www.w3.org/2000/svg">
<path d="M6.50343 0.208984C8.45942 0.208984 10.0451 1.79464 10.0451 3.75065V5.16731H12.1701C12.5613 5.16731 12.8784 5.48445 12.8784 5.87565V14.3757C12.8784 14.7669 12.5613 15.084 12.1701 15.084H0.836751C0.445553 15.084 0.128418 14.7669 0.128418 14.3757V5.87565C0.128418 5.48445 0.445553 5.16731 0.836751 5.16731H2.96175V3.75065C2.96175 1.79464 4.54741 0.208984 6.50343 0.208984ZM10.0451 7.29232H8.62843V8.00065C8.62843 8.39187 8.94555 8.70899 9.33677 8.70899C9.7 8.70899 9.99941 8.43557 10.0404 8.08325L10.0451 8.00065V7.29232ZM4.37842 7.29232H2.96175V8.00065C2.96175 8.39187 3.27889 8.70899 3.67008 8.70899C4.03335 8.70899 4.33274 8.43557 4.37365 8.08325L4.37842 8.00065V7.29232ZM6.50343 1.62565C5.37173 1.62565 4.44666 2.5103 4.38203 3.62579L4.37842 3.75065V5.16731H8.62843V3.75065C8.62843 2.61896 7.74379 1.69389 6.62831 1.62926L6.50343 1.62565Z" fill="#2A2A2B"/>
</svg>
